<?xml version="1.0" encoding="utf-8"?>
<!-- Generator: Adobe Illustrator 16.0.2, SVG Export Plug-In . SVG Version: 6.00 Build 0)  -->
<!DOCTYPE svg PUBLIC "-//W3C//DTD SVG 1.1 Tiny//EN" "http://www.w3.org/Graphics/SVG/1.1/DTD/svg11-tiny.dtd">
<svg version="1.1" baseProfile="tiny" id="Layer_1" xmlns="http://www.w3.org/2000/svg" xmlns:xlink="http://www.w3.org/1999/xlink"
	 x="0px" y="0px" width="550px" height="360px" viewBox="0 0 550 360" xml:space="preserve">
<path fill="#1D9FBE" d="M184.4,300.6c-14.601,0.9-25-5.5-23.5-11.199c1.7-6.9,11.5-12.101,23.2,0c0,0,4.6-15.801-8.9-23.301
	c-4.2-2.3-9.6-3.699-15.1-3.699c-11.7,0.1-24.101,6.1-28.4,22.1c-0.3,2.9-0.9,4.9-0.9,4.9c-11.8-11.801-21.5-6.601-23,0
	c-1.399,5.699,8.9,12.1,23.5,11.199c26.4-1.399,44.2,9.2,44.2,9.2h53.101C228.601,309.8,210.8,299.2,184.4,300.6z"/>
<path fill="#1D9FBE" d="M131.4,300.6c-14.601,0.9-25-5.5-23.5-11.199c1.7-6.9,11.5-12.101,23.2,0c0,0,4.6-15.801-8.9-23.301
	c-4.2-2.3-9.6-3.699-15.1-3.699c-11.7,0.1-24.2,6.1-28.5,22.1c-0.301,2.9-0.9,4.9-0.9,4.9c-11.8-11.801-21.5-6.601-23,0
	c-1.4,5.699,8.9,12.1,23.5,11.199c26.4-1.399,44.2,9.2,44.2,9.2h53.2C175.601,309.8,157.8,299.2,131.4,300.6z"/>
<path fill="#1D9FBE" d="M237.4,300.6c-14.601,0.9-25-5.5-23.5-11.199c1.7-6.9,11.5-12.101,23.2,0c0,0,4.6-15.801-8.9-23.301
	c-4.2-2.3-9.6-3.699-15.1-3.699c-11.601,0.1-24.101,6.1-28.4,22.1c-0.3,2.9-0.9,4.9-0.9,4.9c-11.8-11.801-21.5-6.601-23,0
	c-1.399,5.699,8.9,12.1,23.5,11.199c26.4-1.399,44.2,9.2,44.2,9.2h53.101C281.601,309.8,263.8,299.2,237.4,300.6z"/>
<path fill="#299CC0" d="M120.8,294.3c-14.6,0.9-26.699,2-25.199-3.7c1.6-6.6-11.4-14.5-2.301-4.699c-3.6-3.7-13.6-13.5-24.399-19.4
	c-4.7-2.7-9.8-3.9-14.8-3.9C34.2,262.6,16,281.2,30.4,300.9c7.2,6.3,20.899,9.5,39,9.5h53.1C122.5,310.4,147.2,292.9,120.8,294.3z"
	/>
<path fill="#1D9FBE" d="M385.5,289.4c0,0-0.6-2-0.899-4.9c-4.301-16-16.801-22-28.5-22c-5.4,0-10.7,1.3-15,3.6
	c-13.5,7.5-8.9,23.301-8.9,23.301c11.8-12.101,21.5-6.9,23.2,0c1.399,5.699-8.9,12.1-23.5,11.199c-26.4-1.399-44.2,9.2-44.2,9.2
	h53.1c0,0,17.801-10.6,44.2-9.2c14.601,0.9,25-5.5,23.5-11.199C407.101,282.8,397.3,277.6,385.5,289.4z"/>
<path fill="#299CC0" d="M421.2,287.1c0,0-0.9-2.899-1.1-7.5c-6.4-24.3-25.301-33.5-43.101-33.5c-8.5,0.101-16.8,2.2-23.3,5.7
	c-20.4,11.2-13.5,35.3-13.5,35.3c18.1-18.1,32.7-10.3,35,0c2,8.601-13.5,18.101-35.9,16.9c-40.199-2.3-67.399,14.1-67.399,14.1h80.7
	c0,0,27.3-16.399,67.399-14.1c22.101,1.1,37.899-8.3,35.9-16.9C453.9,277.1,439.3,269.3,421.2,287.1z"/>
<path fill="#1D9FBE" d="M332.4,289.4c0,0-0.601-2-0.9-4.9c-4.3-16-16.8-22-28.5-22c-5.399,0-10.7,1.3-15,3.6
	c-13.5,7.5-8.899,23.301-8.899,23.301c11.8-12.101,21.5-6.9,23.199,0c1.4,5.699-8.899,12.1-23.5,11.199
	c-26.399-1.399-44.199,9.2-44.199,9.2h53.1c0,0,17.8-10.6,44.2-9.2c14.6,0.9,25-5.5,23.5-11.199C354,282.8,344.2,277.6,332.4,289.4z
	"/>
<path fill="#32A7C2" d="M127.601,317.7c-12.301,0.6-20.9-4.601-19.801-9.5c1.4-5.7,9.5-10,19.2,0c0,0,3.7-13.2-7.5-19.5
	c-3.6-2-8.1-3.101-12.8-3.101c-9.8,0-20.1,5-23.6,18.301c0,2.3-0.601,4-0.601,4c-9.8-10-17.8-5.7-19.2,0.3
	c-1.1,4.899,7.5,10,19.801,9.5c22.1-1.101,37,7.8,37,7.8h44.5C164.601,325.5,149.7,316.6,127.601,317.7z"/>
<path fill="#3CABC5" d="M90.101,317.7C77.8,318.3,69.2,313.1,70.3,308.2c1.4-5.7,9.5-10,19.2,0c0,0,3.7-13.2-7.5-19.5
	c-3.6-2-8.1-3.101-12.8-3.101c-9.7,0-20.1,5-23.6,18.301c0,2.3-0.601,4-0.601,4c-9.8-10-17.8-5.7-19.2,0.3
	c-1.1,4.899,7.5,10,19.801,9.5c22.1-1.101,37,7.8,37,7.8h44.5C127.101,325.5,112.2,316.6,90.101,317.7z"/>
<path fill="#32A7C2" d="M170.7,319c-12.3,0.6-20.9-4.6-19.8-9.5c1.399-5.7,9.5-10,19.2,0c0,0,3.699-13.2-7.5-19.5
	c-3.601-2-8.101-3.1-12.801-3.1c-0.094-0.001-0.189-0.001-0.283-0.001c-9.619-0.001-19.851,5.03-23.316,18.301c0,2.3-0.6,4-0.6,4
	c-10-10-18.101-5.7-19.2,0.3c-1.101,4.9,7.5,10,19.8,9.5c22.1-1.1,37,7.8,37,7.8h44.5C207.7,326.8,192.8,317.9,170.7,319z"/>
<path fill="#78C5DB" d="M59.2,317.7c-12.3,0.6-20.9-4.601-19.8-9.5c1.399-5.7,9.5-10,19.2,0c0,0,3.699-13.2-7.5-19.5
	c-3.7-2-7.801-2.9-11.9-2.9c-16.8,0-32.4,15.5-20.2,31.9c6,5.2,17.8,7.8,32.7,7.8h44.5C96.2,325.5,81.3,316.6,59.2,317.7z"/>
<path fill="#299CC0" d="M355.101,304.9c0,0-0.601-2.601-0.9-6c-5.2-20-20.4-27.5-34.5-27.5c-0.184-0.002-0.368-0.004-0.552-0.004
	c-6.41,0-12.69,1.685-17.648,4.504c-16.399,9.199-10.6,29-10.6,29c14.3-14.9,26.1-8.601,28.1,0c1.7,7.199-10.899,14.899-28.7,14.1
	c-32.1-1.7-53.699,11.5-53.699,11.5h64.6c0,0,22.7-9.5,54.5-7.8c17.8,1.1,29.6-10.601,27.8-17.8
	C381.2,296.3,369.4,290,355.101,304.9z"/>
<path fill="#3CABC5" d="M302.4,309.2c0,0-0.601-1.7-0.601-4c-3.5-13.4-13.899-18.4-23.6-18.4c-4.7,0-9.3,1.2-12.8,3.2
	c-11.2,6.3-7.5,19.5-7.5,19.5c9.8-10,17.8-5.7,19.2,0c1.1,4.9-7.5,10-19.801,9.5c-22.1-1.1-37,7.8-37,7.8h44.5
	c0,0,14.9-8.899,37-7.8c12.301,0.6,20.9-4.6,19.801-9.5C320.2,303.5,312.101,299.2,302.4,309.2z"/>
<path fill="#238BB5" d="M66.5,251.5l3.7,6.9c2.3,4,4.9,7.8,7.7,11.5c13.5,0.899,25.5,1.1,37,0.899c22.1-0.6,40.2-3.2,53.899-7.8
	c2-0.6,4.301,0.3,4.9,2.3s-0.3,4.3-2.3,4.9c-1.7,0.6-3.7,1.1-5.7,1.7c-10.9,3.199-23.2,5.199-38.2,6.3h-2
	c-5.7,0.3-12.1,0.6-18.6,0.6c-7.2,0-14.3,0-22.101-0.6c27,30.399,69.7,48.8,122.5,48.8c96.101,0,179.601-36.5,228.1-117.2
	L53.601,209.9C55.601,224.8,59.9,238.9,66.5,251.5z"/>
<path fill="#3A4D54" d="M474.2,121.8c-2.6-20.4-15.8-38.2-31.8-51.1l-6.3-5.2l-5.5,6c-10.601,12.3-13.801,33-12.302,48.8
	c0.901,11.5,4.602,23.3,11.802,32.7c-5.5,3.2-11.802,5.7-17.201,7.8c-11.199,4-23.499,6-35.299,6h-25.5v-51.7h-50.5l-0.301-0.3V12
	H240.4v52h-101.3v50.8h-50.5v51.7H45.3l-0.6,7.8c-0.4,5-0.7,9.9-0.7,14.9v0.2c0,20.5,3.9,40.899,12.4,59.6l4.6,9.2l0.601,0.899
	c31,53.101,86.1,75.5,145.8,75.5c115.899,0,211.2-51.699,255.1-161.1c29.601,1.7,59.4-6.9,73.7-35l3.7-7.2l-6.9-4
	C516.101,117.5,493.4,116.1,474.2,121.8z"/>
<path fill="#2193C1" d="M53.101,175.4c-2.601,27.9,2.3,53.4,13.5,75.5L70.3,257.8c2.301,4,4.9,7.8,7.7,11.5
	c13.5,0.9,25.5,1.101,37,0.9c22.101-0.601,40.2-3.2,53.9-7.8c2-0.601,4.3,0.3,4.899,2.3c0.601,2-0.3,4.3-2.3,4.899
	c-1.7,0.601-3.7,1.101-5.7,1.7c-10.899,3.2-22.399,5.2-37.3,6h-0.899h-1.7c-5.7,0.3-12.3,0.3-18.7,0.3c-7.2,0-14.1,0-21.8-0.6h-0.3
	c27,30.4,69.399,48.5,122.199,48.5c112.2,0,207.4-49.7,249.301-161.4c29.8,3.2,58.5-4.6,71.699-30.1c-20.699-11.2-47.6-7.5-62.8,0.3
	c3.4-26.4-16.399-47.1-28.7-57.1c-13.899,16.4-16.199,59.1,5.9,77.2c-12.3,10.9-38.4,21-65.1,21H53.101z"/>
<g>
	<path fill="#209DC6" d="M127.101,277.3l0.3,0.3h0.2C127.4,277.5,127.2,277.4,127.101,277.3z"/>
	<path fill="#209DC6" d="M437,77.2c-14.1,16.4-16.399,59.1,5.7,77.2c-12.3,10.9-38.4,21-65.1,21H72.3
		c-1.399,42.8,14.601,74.9,42.5,94.8c22.101-0.601,40.2-3.2,53.9-7.8c2-0.601,4.3,0.3,4.9,2.3c0.6,2-0.301,4.3-2.301,4.899
		c-1.699,0.601-3.699,1.101-5.699,1.7c-10.801,3.101-23.101,5.4-37.9,6.3c38.1,19.2,93.3,19.101,156.4-5.199
		C355.3,245.1,421.5,192.9,467.7,133.4c-0.9,0.9-1.4,0.9-2,0.9C469.101,107.9,449.3,87.2,437,77.2z"/>
</g>
<rect x="249.101" y="20.9" fill="#3CABC5" width="43.898" height="43.6"/>
<rect x="252.7" y="24" fill="#3A4D54" width="3.399" height="36.8"/>
<rect x="259.3" y="24" fill="#3A4D54" width="3.7" height="36.8"/>
<rect x="265.9" y="24" fill="#3A4D54" width="3.7" height="36.8"/>
<rect x="272.5" y="24" fill="#3A4D54" width="3.7" height="36.8"/>
<rect x="279.101" y="24" fill="#3A4D54" width="3.699" height="36.8"/>
<rect x="286" y="24" fill="#3A4D54" width="3.399" height="36.8"/>
<rect x="147.8" y="73.6" fill="#299CC0" width="43.9" height="43.6"/>
<rect x="151.4" y="75.9" fill="#3A4D54" width="3.399" height="36.8"/>
<rect x="158" y="75.9" fill="#3A4D54" width="3.7" height="36.8"/>
<rect x="164.601" y="75.9" fill="#3A4D54" width="3.699" height="36.8"/>
<rect x="171.2" y="75.9" fill="#3A4D54" width="3.7" height="36.8"/>
<rect x="177.8" y="75.9" fill="#3A4D54" width="3.7" height="36.8"/>
<rect x="184.7" y="75.9" fill="#3A4D54" width="3.4" height="36.8"/>
<rect x="147.8" y="124.2" fill="#3CABC5" width="43.9" height="43.9"/>
<rect x="151.4" y="126.9" fill="#3A4D54" width="3.399" height="36.8"/>
<rect x="158" y="126.9" fill="#3A4D54" width="3.7" height="36.8"/>
<rect x="164.601" y="126.9" fill="#3A4D54" width="3.699" height="36.8"/>
<rect x="171.2" y="126.9" fill="#3A4D54" width="3.7" height="36.8"/>
<rect x="177.8" y="126.9" fill="#3A4D54" width="3.7" height="36.8"/>
<rect x="184.7" y="126.9" fill="#3A4D54" width="3.4" height="36.8"/>
<rect x="97.3" y="124.2" fill="#299CC0" width="43.9" height="43.9"/>
<rect x="101.2" y="126.9" fill="#3A4D54" width="3.4" height="36.8"/>
<rect x="107.8" y="126.9" fill="#3A4D54" width="3.7" height="36.8"/>
<rect x="114.4" y="126.9" fill="#3A4D54" width="3.7" height="36.8"/>
<rect x="121" y="126.9" fill="#3A4D54" width="3.7" height="36.8"/>
<rect x="127.601" y="126.9" fill="#3A4D54" width="3.699" height="36.8"/>
<rect x="134.5" y="126.9" fill="#3A4D54" width="3.4" height="36.8"/>
<rect x="198.601" y="73.6" fill="#3CABC5" width="43.899" height="43.6"/>
<rect x="201.601" y="75.9" fill="#3A4D54" width="3.399" height="36.8"/>
<rect x="208.2" y="75.9" fill="#3A4D54" width="3.7" height="36.8"/>
<rect x="214.8" y="75.9" fill="#3A4D54" width="3.701" height="36.8"/>
<rect x="221.4" y="75.9" fill="#3A4D54" width="3.7" height="36.8"/>
<rect x="228" y="75.9" fill="#3A4D54" width="3.7" height="36.8"/>
<rect x="234.9" y="75.9" fill="#3A4D54" width="3.399" height="36.8"/>
<rect x="198.601" y="124.2" fill="#299CC0" width="43.899" height="43.9"/>
<rect x="202" y="126.9" fill="#3A4D54" width="3.4" height="36.8"/>
<rect x="208.601" y="126.9" fill="#3A4D54" width="3.699" height="36.8"/>
<rect x="215.2" y="126.9" fill="#3A4D54" width="3.7" height="36.8"/>
<rect x="221.8" y="126.9" fill="#3A4D54" width="3.7" height="36.8"/>
<rect x="228.4" y="126.9" fill="#3A4D54" width="3.7" height="36.8"/>
<rect x="235.3" y="126.9" fill="#3A4D54" width="3.4" height="36.8"/>
<rect x="249.101" y="73.6" fill="#299CC0" width="43.898" height="43.6"/>
<rect x="252.7" y="76.6" fill="#3A4D54" width="3.399" height="36.8"/>
<rect x="259.3" y="76.6" fill="#3A4D54" width="3.7" height="36.8"/>
<rect x="265.9" y="76.6" fill="#3A4D54" width="3.7" height="36.8"/>
<rect x="272.5" y="76.6" fill="#3A4D54" width="3.7" height="36.8"/>
<rect x="279.101" y="76.6" fill="#3A4D54" width="3.699" height="36.8"/>
<rect x="286" y="76.6" fill="#3A4D54" width="3.399" height="36.8"/>
<rect x="249.101" y="124.2" fill="#3CABC5" width="43.898" height="43.9"/>
<rect x="252.7" y="126.9" fill="#3A4D54" width="3.399" height="36.8"/>
<rect x="259.3" y="126.9" fill="#3A4D54" width="3.7" height="36.8"/>
<rect x="265.9" y="126.9" fill="#3A4D54" width="3.7" height="36.8"/>
<rect x="272.5" y="126.9" fill="#3A4D54" width="3.7" height="36.8"/>
<rect x="279.101" y="126.9" fill="#3A4D54" width="3.699" height="36.8"/>
<rect x="286" y="126.9" fill="#3A4D54" width="3.399" height="36.8"/>
<rect x="299.9" y="124.2" fill="#299CC0" width="43.899" height="43.9"/>
<rect x="303" y="126.9" fill="#3A4D54" width="3.4" height="36.8"/>
<rect x="309.601" y="126.9" fill="#3A4D54" width="3.699" height="36.8"/>
<rect x="316.2" y="126.9" fill="#3A4D54" width="3.7" height="36.8"/>
<rect x="322.8" y="126.9" fill="#3A4D54" width="3.701" height="36.8"/>
<rect x="329.4" y="126.9" fill="#3A4D54" width="3.7" height="36.8"/>
<rect x="336.2" y="126.9" fill="#3A4D54" width="3.4" height="36.8"/>
<path fill="#D4E3E2" d="M189.101,238.8C182.2,238.9,177,244.3,177,250.9c0,6.6,5.5,12.1,12.101,12.1c6.6,0,12.1-5.5,12.1-12.1
	C201.2,244.3,195.7,238.8,189.101,238.8z"/>
<path fill="#3A4D54" d="M193.8,249.8c-1.699,0-3.399-1.399-3.399-3.399c0-1.4,0.6-2.601,1.7-3.2c-0.9-0.3-2-0.601-3.2-0.601
	c-4.7,0-8.5,3.7-8.5,8.9c0,4.6,3.7,8.6,8.6,8.6c4.601,0,8.601-3.699,8.601-8.6c0-1.4-0.301-2.3-0.601-3.4
	C196.4,249,195.3,249.8,193.8,249.8z"/>
<path fill="#BFD8D7" d="M165.5,271.9c-11.2,3.1-24.399,5.1-40.1,6c-5.7,0.3-12.101,0.6-18.4,0.6c-7.5,0-15.2-0.3-23.5-0.6
	c27.5,27.6,61.4,48.8,123.9,49.1c4.6-0.3,9.2-0.3,13.8-0.3C191.101,312.3,174.7,293.1,165.5,271.9z"/>
<path fill="#D4E3E2" d="M125.4,277.9c10.899,5.699,26.1,11.5,51.399,13.5c-4-5.7-8-12.601-11.199-19.5
	C154.3,275,140.9,277,125.4,277.9z"/>
<path fill="#279FC0" d="M268.101,340.8c-15.4,0.601-25.7-4-24.801-8.399c1.801-9.4,10.9-14.4,21.301-8.801
	c-1.2-4.399-6.2-10.1-17.101-12.1c-1.7-0.3-3.6-0.5-5.6-0.5c-10.8,0-24.5,5-29.3,17.8c-0.301,2.101-0.9,3.601-0.9,3.601
	c-12.4-9-22.7-5.2-24.5,0c-1.5,4.199,9.5,9,24.8,8.399c27.8-1,47,6.9,47,6.9h56.101C315.101,347.7,296.2,339.5,268.101,340.8z"/>
<path fill="#3CABC5" d="M225.4,339.4c-13,0.699-22.2-5-20.9-10c1.5-6.2,10.2-10.7,20.7,0c0,0,4-14.2-8-20.7c-3.8-2-8.6-3.2-13.6-3.2
	c-10.601,0.1-21.7,5.4-25.4,19.7c-0.2,2.5-0.7,4.2-0.7,4.2c-10.7-10.2-19.2-5.7-20.399,0c-1.2,5,8,10.699,20.899,10
	c23.7-1.5,39.601,8.199,39.601,8.199H265C265,347.6,248.8,338.1,225.4,339.4z"/>
<path fill="#78C5DB" d="M196.8,338.2c-14.899,0.899-25.5-5.7-24.1-11.5c1.7-7.2,11.8-12.3,23.8,0c0,0,4.601-16.4-9.2-23.8
	c-4.8-2.601-10-3.7-15.1-3.7c-20.4,0-39.4,18.7-24.5,38.7c7.5,6.6,21.5,9.8,40.2,9.8h54.5C242.4,347.7,223.7,336.8,196.8,338.2z"/>
<path fill="#3CABC5" d="M390.5,310.6c0,0-0.6-2-0.6-4.6c-4.101-15.3-16-21.1-27.101-21.1c-5.399,0.1-10.5,1.399-14.5,3.6
	c-12.899,7.2-8.6,22.1-8.6,22.1c11.2-11.5,20.7-6.6,22.1,0c1.4,5.5-8.6,11.5-22.699,10.601c-25.2-1.4-42.5,8.899-42.5,8.899h50.8
	c0,0,17.2-10.3,42.5-8.899c14.1,0.899,23.8-5.2,22.7-10.601C411.2,303.7,402,299.1,390.5,310.6z"/>
<path fill="#78C5DB" d="M406.2,284.9c-4.8,0.1-9.6,1.199-14.1,3.6c-12.9,7.2-8.601,22.1-8.601,22.1c11.2-11.5,20.7-6.6,22.101,0
	C407,316.1,397,322.1,382.9,321.2c-25.2-1.4-42.5,8.899-42.5,8.899h50.8c17.199,0,30.699-3.199,37.6-8.899
	C442.8,302.6,425.2,284.9,406.2,284.9z"/>
</svg>
